<svg xmlns="http://www.w3.org/2000/svg" width="20" height="20" viewBox="0 0 95.172 95.172"><path d="M93.104 0H2.069A2.07 2.07 0 0 0 0 2.069v91.035c0 1.142.927 2.068 2.069 2.068h91.033a2.068 2.068 0 0 0 2.069-2.068V2.069A2.068 2.068 0 0 0 93.104 0zM76.948 32.546L38.602 70.893a1.23 1.23 0 0 1-1.738 0L18.226 52.256a1.23 1.23 0 0 1 0-1.738l6.542-6.542c.461-.461 1.277-.461 1.738 0l11.227 11.226 30.936-30.936c.461-.461 1.277-.461 1.738 0l6.541 6.542c.23.23.361.543.361.869 0 .326-.131.638-.361.869z" fill="#005eb8"/></svg>