<svg xmlns="http://www.w3.org/2000/svg" width="70" height="28.091" viewBox="0 0 70 28.091"><path d="M69.455 21.364h-3.637L66.455 19h-7.273l-.636 2.364H55v-.455c.091-.273.091-.545.182-.818.636-2.636 2.364-5.182 5.273-5.182 1.182 0 2.364.455 2.182 2.091H67a3.749 3.749 0 0 0-.364-3.182C65.727 12.545 63.818 12 61.455 12a11.248 11.248 0 0 0-6.364 1.727V.545h14.454v20.819zm-8.545 3.545a11.284 11.284 0 0 1-2.455.273c-2.091 0-3.545-1-3.545-3.182h6.727zM52.636 13v3a11.708 11.708 0 0 0-1.909 4.091c-.091.455-.182.818-.273 1.273h-2.09l1.818-8.636h-6.091l-5.455 8.636h-.455V.545h14.455zm-8.091 8.364h-2.181l3.273-5.182zm-8.727-8.545h-3.636l-2.455 8.636h-3.818a5.248 5.248 0 0 0 3.545-4.182c.273-1.545.182-2.636-.455-3.455-1-1.182-2.909-1.091-4.636-1.091h-2.908V.545h14.454v12.273zm-2.364 8.545L35 16l.091 5.364zm-10.454-2h-1.909l.455-1.545.181-.819.455-1.818h1.364c1.182 0 2 .091 2.273.455a1.858 1.858 0 0 1-.091 1.545A2.684 2.684 0 0 1 23 19.364m-4.091-5.818l-.182.727-2.091 6.909-.091.273H9.727l-.545-1.091 7.364-7.455h-4.728l-5.727 6.182 1.818-6.182H4.545V.545H19v13zM54.455 0v14a8.424 8.424 0 0 0-1.273 1.273V0H37.636v12.818h-1.272V0H20.818v12.818h-1.273V0H4v14.545L0 27.818h3.455L5.182 22h.545l2.909 5.818h4.182L10 21.909h6.364l-1.727 5.818h3.818l1.727-5.818h9.273l-1.727 5.818h3.818l1.636-5.818h1.727L35 27.727h3.182l3.727-5.818h2.455l-1.273 5.818h3.818l1.182-5.818h2.182a5.6 5.6 0 0 0 1.545 4.545c1.455 1.364 3.727 1.636 5.364 1.636a31.475 31.475 0 0 0 7-.909l1.273-5.273H70V0z" fill="#fff"/></svg>